<svg xmlns="http://www.w3.org/2000/svg" xmlns:xlink="http://www.w3.org/1999/xlink" width="4000" zoomAndPan="magnify" viewBox="0 0 3000 749.999995" height="1000" preserveAspectRatio="xMidYMid meet" version="1.0"><defs><g/><clipPath id="6d20a8c9e0"><path d="M 202 196 L 456.546875 196 L 456.546875 606 L 202 606 Z M 202 196 " clip-rule="nonzero"/></clipPath><clipPath id="785cb1e759"><path d="M 74.796875 144.109375 L 330 144.109375 L 330 554 L 74.796875 554 Z M 74.796875 144.109375 " clip-rule="nonzero"/></clipPath></defs><rect x="-300" width="3600" fill="#000000" y="-74.999999" height="899.999994" fill-opacity="1"/><g clip-path="url(#6d20a8c9e0)"><path fill="#ffffff" d="M 389.34375 478.597656 L 202.175781 370.535156 L 202.175781 459.046875 L 456.550781 605.914062 L 456.550781 196.921875 L 389.34375 196.921875 L 389.34375 478.597656 " fill-opacity="1" fill-rule="nonzero"/></g><g clip-path="url(#785cb1e759)"><path fill="#ffffff" d="M 74.992188 144.085938 L 74.992188 553.074219 L 142.195312 553.074219 L 142.195312 271.398438 L 329.359375 379.460938 L 329.359375 290.949219 L 74.992188 144.085938 " fill-opacity="1" fill-rule="nonzero"/></g><g fill="#ffffff" fill-opacity="1"><g transform="translate(542.408395, 548.726096)"><g><path d="M 206.515625 5.875 C 170.953125 5.875 138.894531 -1.789062 110.34375 -17.125 C 81.800781 -32.457031 59.453125 -53.582031 43.296875 -80.5 C 27.148438 -107.414062 19.078125 -137.675781 19.078125 -171.28125 C 19.078125 -204.882812 27.148438 -235.144531 43.296875 -262.0625 C 59.453125 -288.976562 81.800781 -310.101562 110.34375 -325.4375 C 138.894531 -340.769531 170.953125 -348.4375 206.515625 -348.4375 C 242.078125 -348.4375 274.050781 -340.769531 302.4375 -325.4375 C 330.820312 -310.101562 353.171875 -288.976562 369.484375 -262.0625 C 385.796875 -235.144531 393.953125 -204.882812 393.953125 -171.28125 C 393.953125 -137.675781 385.796875 -107.414062 369.484375 -80.5 C 353.171875 -53.582031 330.820312 -32.457031 302.4375 -17.125 C 274.050781 -1.789062 242.078125 5.875 206.515625 5.875 Z M 206.515625 -61.65625 C 226.742188 -61.65625 245.015625 -66.304688 261.328125 -75.609375 C 277.640625 -84.910156 290.441406 -97.878906 299.734375 -114.515625 C 309.035156 -131.148438 313.6875 -150.070312 313.6875 -171.28125 C 313.6875 -192.488281 309.035156 -211.410156 299.734375 -228.046875 C 290.441406 -244.679688 277.640625 -257.648438 261.328125 -266.953125 C 245.015625 -276.253906 226.742188 -280.90625 206.515625 -280.90625 C 186.285156 -280.90625 168.015625 -276.253906 151.703125 -266.953125 C 135.390625 -257.648438 122.582031 -244.679688 113.28125 -228.046875 C 103.988281 -211.410156 99.34375 -192.488281 99.34375 -171.28125 C 99.34375 -150.070312 103.988281 -131.148438 113.28125 -114.515625 C 122.582031 -97.878906 135.390625 -84.910156 151.703125 -75.609375 C 168.015625 -66.304688 186.285156 -61.65625 206.515625 -61.65625 Z M 206.515625 -61.65625 "/></g></g></g><g fill="#ffffff" fill-opacity="1"><g transform="translate(999.478748, 548.726096)"><g><path d="M 256.4375 0 L 173.734375 -118.921875 L 92.484375 0 L 1.46875 0 L 128.21875 -174.21875 L 7.828125 -342.5625 L 97.875 -342.5625 L 176.671875 -231.46875 L 253.984375 -342.5625 L 339.625 -342.5625 L 220.21875 -177.15625 L 347.953125 0 Z M 256.4375 0 "/></g></g></g><g fill="#ffffff" fill-opacity="1"><g transform="translate(1392.931153, 548.726096)"><g><path d="M 354.796875 -342.5625 L 354.796875 0 L 275.515625 0 L 275.515625 -140.453125 L 119.890625 -140.453125 L 119.890625 0 L 40.625 0 L 40.625 -342.5625 L 119.890625 -342.5625 L 119.890625 -207.5 L 275.515625 -207.5 L 275.515625 -342.5625 Z M 354.796875 -342.5625 "/></g></g></g><g fill="#ffffff" fill-opacity="1"><g transform="translate(1832.384208, 548.726096)"><g><path d="M 40.625 -342.5625 L 196.234375 -342.5625 C 233.429688 -342.5625 266.300781 -335.460938 294.84375 -321.265625 C 323.394531 -307.078125 345.582031 -287.097656 361.40625 -261.328125 C 377.226562 -235.554688 385.140625 -205.539062 385.140625 -171.28125 C 385.140625 -137.019531 377.226562 -107.003906 361.40625 -81.234375 C 345.582031 -55.460938 323.394531 -35.476562 294.84375 -21.28125 C 266.300781 -7.09375 233.429688 0 196.234375 0 L 40.625 0 Z M 192.328125 -65.09375 C 226.578125 -65.09375 253.894531 -74.632812 274.28125 -93.71875 C 294.675781 -112.800781 304.875 -138.65625 304.875 -171.28125 C 304.875 -203.90625 294.675781 -229.757812 274.28125 -248.84375 C 253.894531 -267.925781 226.578125 -277.46875 192.328125 -277.46875 L 119.890625 -277.46875 L 119.890625 -65.09375 Z M 192.328125 -65.09375 "/></g></g></g><g fill="#ffffff" fill-opacity="1"><g transform="translate(2359.28848, 549.94136)"><g><path d="M 300.46875 -263.28125 L 300.46875 0 L 228.046875 0 L 228.046875 -31.3125 C 217.929688 -19.894531 205.859375 -11.164062 191.828125 -5.125 C 177.804688 0.90625 162.640625 3.921875 146.328125 3.921875 C 111.742188 3.921875 84.335938 -6.023438 64.109375 -25.921875 C 43.878906 -45.828125 33.765625 -75.359375 33.765625 -114.515625 L 33.765625 -263.28125 L 110.109375 -263.28125 L 110.109375 -125.765625 C 110.109375 -83.359375 127.890625 -62.15625 163.453125 -62.15625 C 181.722656 -62.15625 196.40625 -68.109375 207.5 -80.015625 C 218.59375 -91.921875 224.140625 -109.617188 224.140625 -133.109375 L 224.140625 -263.28125 Z M 300.46875 -263.28125 "/></g></g></g><g fill="#ffffff" fill-opacity="1"><g transform="translate(2739.526626, 549.94136)"><g><path d="M 35.234375 -263.28125 L 111.578125 -263.28125 L 111.578125 0 L 35.234375 0 Z M 73.40625 -299.984375 C 59.375 -299.984375 47.953125 -304.0625 39.140625 -312.21875 C 30.335938 -320.375 25.9375 -330.488281 25.9375 -342.5625 C 25.9375 -354.632812 30.335938 -364.75 39.140625 -372.90625 C 47.953125 -381.0625 59.375 -385.140625 73.40625 -385.140625 C 87.4375 -385.140625 98.851562 -381.222656 107.65625 -373.390625 C 116.46875 -365.554688 120.875 -355.769531 120.875 -344.03125 C 120.875 -331.300781 116.46875 -320.773438 107.65625 -312.453125 C 98.851562 -304.140625 87.4375 -299.984375 73.40625 -299.984375 Z M 73.40625 -299.984375 "/></g></g></g></svg>