<?xml version="1.0" encoding="utf-8"?>
<!-- Generator: Adobe Illustrator 27.4.1, SVG Export Plug-In . SVG Version: 6.00 Build 0)  -->
<svg version="1.1" id="Layer_1" xmlns="http://www.w3.org/2000/svg" xmlns:xlink="http://www.w3.org/1999/xlink" x="0px" y="0px"
	 viewBox="0 0 2158 2500" style="enable-background:new 0 0 2158 2500;" xml:space="preserve">
<style type="text/css">
	.st0{fill:#FFFFFF;}
</style>
<path class="st0" d="M1064.1,604.9c138.1,0,259.2-53.9,363.4-161.7c104.2-107.8,156.3-233.2,156.3-376.2c0-15.7-1.2-38-3.7-66.9
	c-18.2,2.5-31.8,4.5-40.9,6.2c-127.3,18.2-239.4,80.6-336.1,187.2c-96.7,106.6-145.1,220.6-145.1,342.1
	C1057.9,549.5,1060,572.6,1064.1,604.9L1064.1,604.9z M1558.9,2500c98.4,0,207.1-67.3,326.2-202c119.1-134.7,210-292.9,272.8-474.7
	c-234-120.6-351-293.8-351-519.3c0-188.4,94.7-349.5,284-483.4c-131.5-164.4-305.1-246.7-520.9-246.7c-90.9,0-174,13.6-249.3,40.9
	l-47.1,17.4l-63.2,24.8c-41.3,15.7-79,23.6-112.9,23.6c-26.5,0-61.2-9.1-104.2-27.3l-48.4-19.8l-45.9-18.6
	c-67-28.1-138.9-42.1-215.8-42.1c-205.9,0-371.2,69.4-496.1,208.2C62.5,919.7,0.1,1102.7,0.1,1329.9c0,319.8,100,615.2,300.1,886.2
	C439.1,2405.4,566,2500,680.9,2500c48.8,0,97.1-9.5,145.1-28.5l60.8-24.8l48.4-17.4c67.8-24,130.2-35.9,187.3-35.9
	c60.4,0,129.8,15.3,208.3,45.9l38.4,14.9C1449.4,2484.7,1512.6,2500,1558.9,2500z"/>
</svg>
