<?xml version="1.0" encoding="utf-8"?>
<!-- Generator: Adobe Illustrator 27.4.1, SVG Export Plug-In . SVG Version: 6.00 Build 0)  -->
<svg version="1.1" id="Layer_1" xmlns="http://www.w3.org/2000/svg" xmlns:xlink="http://www.w3.org/1999/xlink" x="0px" y="0px"
	 viewBox="0 0 2500 2500" style="enable-background:new 0 0 2500 2500;" xml:space="preserve">
<style type="text/css">
	.st0{fill:#FFFFFF;}
</style>
<path class="st0" d="M833.5,1250c0-230.1,186.5-416.7,416.6-416.7s416.7,186.6,416.7,416.7s-186.6,416.7-416.7,416.7
	S833.5,1480.1,833.5,1250 M608.2,1250c0,354.5,287.4,641.9,641.9,641.9s641.9-287.4,641.9-641.9s-287.4-641.9-641.9-641.9
	S608.2,895.5,608.2,1250 M1767.3,582.7c0,82.8,67.1,150,149.9,150.1c82.8,0,150-67.1,150.1-149.9s-67.1-150-149.9-150.1h-0.1
	C1834.5,432.8,1767.4,499.9,1767.3,582.7 M745.1,2267.5c-121.9-5.6-188.1-25.9-232.1-43c-58.4-22.7-100-49.8-143.8-93.5
	s-70.9-85.3-93.5-143.7c-17.2-44-37.5-110.3-43-232.1c-6.1-131.8-7.3-171.3-7.3-505.2s1.3-373.3,7.3-505.2
	c5.6-121.9,26-188,43-232.1c22.7-58.4,49.8-100,93.5-143.8s85.3-70.9,143.8-93.5c44-17.2,110.3-37.5,232.1-43
	c131.8-6.1,171.3-7.3,505-7.3s373.3,1.3,505.2,7.3c121.9,5.6,188,26,232.1,43c58.4,22.6,100,49.8,143.8,93.5s70.8,85.4,93.5,143.8
	c17.2,44,37.5,110.3,43,232.1c6.1,131.9,7.3,171.3,7.3,505.2s-1.2,373.3-7.3,505.2c-5.6,121.9-25.9,188.1-43,232.1
	c-22.7,58.4-49.8,100-93.5,143.7s-85.4,70.8-143.8,93.5c-44,17.2-110.3,37.5-232.1,43c-131.8,6.1-171.3,7.3-505.2,7.3
	S876.8,2273.5,745.1,2267.5 M734.7,7.6c-133.1,6.1-224,27.2-303.4,58.1c-82.2,31.9-151.9,74.7-221.4,144.2S97.6,349,65.7,431.2
	c-30.9,79.5-52,170.3-58.1,303.4C1.5,867.9,0.1,910.5,0.1,1250s1.4,382.1,7.6,515.3c6.1,133.1,27.2,223.9,58.1,303.4
	c31.9,82.2,74.6,152,144.2,221.4s139.2,112.2,221.4,144.2c79.6,30.9,170.3,52,303.4,58.1c133.3,6.1,175.9,7.6,515.3,7.6
	s382.1-1.4,515.3-7.6c133.1-6.1,223.9-27.2,303.4-58.1c82.2-32,151.9-74.7,221.4-144.2s112.2-139.2,144.2-221.4
	c30.9-79.5,52.1-170.3,58.1-303.4c6.1-133.4,7.5-175.9,7.5-515.3s-1.4-382.1-7.5-515.3c-6.1-133.1-27.2-224-58.1-303.4
	c-32-82.2-74.7-151.9-144.2-221.4S2151,97.5,2068.9,65.6c-79.6-30.9-170.4-52.1-303.4-58.1C1632.2,1.5,1589.6,0,1250.2,0
	S868.1,1.4,734.7,7.6"/>
</svg>
