<?xml version="1.0" encoding="utf-8"?>
<!-- Generator: Adobe Illustrator 27.4.1, SVG Export Plug-In . SVG Version: 6.00 Build 0)  -->
<svg version="1.1" id="Layer_1" xmlns="http://www.w3.org/2000/svg" xmlns:xlink="http://www.w3.org/1999/xlink" x="0px" y="0px"
	 viewBox="0 0 2500 2500" style="enable-background:new 0 0 2500 2500;" xml:space="preserve">
<style type="text/css">
	.st0{fill:#FFFFFF;}
</style>
<path class="st0" d="M0,0h2500v2500H0V0z"/>
<path d="M2295.4,1903.8c-18.3-114.1-92.7-209.8-313-299.2c-76.5-35.2-161.8-60.4-187.3-118.3c-9-33.7-10.2-52.8-4.5-73.2
	c16.4-66.3,95.5-87,158.3-68c40.4,13.5,78.7,44.7,101.7,94.3c107.9-69.9,107.7-69.4,183-117.4c-27.6-42.8-42.3-62.5-60.4-80.8
	c-64.9-72.5-153.3-109.8-294.7-106.9c-24.5,3.1-49.2,6.4-73.7,9.5c-70.6,17.8-137.8,54.9-177.3,104.6
	c-118.3,134.3-84.6,369.3,59.4,466c141.9,106.5,350.3,130.7,376.9,230.3c25.9,121.9-89.6,161.4-204.4,147.3
	c-84.6-17.6-131.7-60.6-182.5-138.8c-93.6,54.2-93.6,54.2-189.9,109.6c22.8,49.9,46.8,72.5,85.1,115.7
	c181.1,183.7,634.3,174.7,715.5-103.4C2291.1,2065.6,2313,2001.9,2295.4,1903.8z M1359.1,1149h-233.8c0,202-0.9,402.6-0.9,604.6
	c0,128.6,6.7,246.4-14.3,282.6c-34.2,71.1-122.9,62.3-163.3,48.5c-41.1-20.2-62-49-86.3-89.6c-6.7-11.6-11.6-20.7-13.3-21.4
	c-63.4,38.7-126.7,77.7-190.1,116.4c31.6,64.9,78.2,121.2,137.8,157.8c89.1,53.5,208.9,69.9,334.1,41.1
	c81.5-23.8,151.9-73,188.7-147.8c53.2-98.1,41.8-217,41.3-348.4C1360.3,1578.4,1359.1,1364.1,1359.1,1149L1359.1,1149z"/>
</svg>
