<?xml version="1.0" encoding="utf-8"?>
<!-- Generator: Adobe Illustrator 27.4.1, SVG Export Plug-In . SVG Version: 6.00 Build 0)  -->
<svg version="1.1" id="Layer_1" xmlns="http://www.w3.org/2000/svg" xmlns:xlink="http://www.w3.org/1999/xlink" x="0px" y="0px"
	 viewBox="0 0 394 80" style="enable-background:new 0 0 394 80;" xml:space="preserve">
<style type="text/css">
	.st0{fill:#FFFFFF;}
</style>
<path class="st0" d="M262,0h68.5v12.7h-27.2v66.6h-13.6V12.7H262V0z M149,0v12.7H94v20.4h44.3v12.6H94v21h55v12.6H80.5V0h68.7H149z
	 M183.3,0h-17.8l63.8,79.4h17.9l-32-39.7l32-39.6h-17.9l-23,28.6l-23-28.6V0z M201.6,56.7l-9-11l-27.1,33.7h17.8L201.6,56.7z"/>
<path class="st0" d="M81,79.3L17,0H0v79.3h13.6V17l50.2,62.3H81z M333.6,78.9c-1,0-1.8-0.4-2.5-1s-1.1-1.6-1.1-2.6s0.3-1.8,1-2.5
	s1.6-1,2.6-1s1.8,0.3,2.5,1c1.2,1.1,1.5,2.9,0.6,4.3c-0.6,1.1-1.8,1.7-3,1.8L333.6,78.9z M356.8,45.4h6v23.3c0,2.1-0.4,4-1.3,5.5
	c-0.9,1.5-2.2,2.7-3.8,3.5c-1.6,0.8-3.5,1.3-5.7,1.3c-2,0-3.7-0.4-5.3-1s-2.8-1.8-3.7-3.2c-0.9-1.3-1.4-3-1.4-5h6
	c0.1,0.8,0.3,1.6,0.7,2.2s1,1.2,1.6,1.5c0.7,0.4,1.5,0.5,2.4,0.5c1,0,1.8-0.2,2.4-0.6c0.7-0.4,1.3-1,1.6-1.8c0.3-0.8,0.5-1.8,0.5-3
	L356.8,45.4L356.8,45.4z M387.7,54.5c-0.1-1.3-0.9-2.6-2-3.3c-1.3-0.8-2.8-1.2-4.3-1.1c-1.3,0-2.4,0.2-3.3,0.5c-0.9,0.4-1.6,1-2,1.6
	c-0.9,1.1-1,2.7-0.3,4c0.3,0.5,0.7,0.9,1.3,1.2l1.8,1l2,0.5l3.2,0.8c1.3,0.3,2.5,0.7,3.7,1.2c1.1,0.4,2.2,1.1,3.2,1.8
	c2,1.6,3.1,4,3,6.5c0,2-0.5,3.7-1.5,5.1c-1.1,1.6-2.6,2.8-4.4,3.5c-1.8,0.8-4.1,1.2-6.8,1.2c-2.6,0-4.9-0.4-6.8-1.2
	c-2-0.8-3.4-2-4.5-3.5c-1.1-1.7-1.7-3.6-1.7-5.6h6c0.1,2.1,1.5,4,3.5,4.6c1,0.4,2.2,0.6,3.4,0.6c1.3,0,2.5-0.2,3.5-0.6
	s1.8-1,2.4-1.7c0.5-0.7,0.8-1.5,0.8-2.4c0-0.9-0.2-1.6-0.7-2.2c-0.6-0.5-1.3-1-2.1-1.4l-3.2-1l-3.8-1c-2.8-0.7-5-1.7-6.6-3.2
	c-1.6-1.4-2.5-3.5-2.4-5.7c0-1.8,0.6-3.6,1.7-5c1.1-1.5,2.6-2.8,4.3-3.5c2-0.8,4-1.2,6.4-1.2c2.3,0,4.4,0.4,6.2,1.2
	c1.8,0.8,3.2,2,4.3,3.4c1,1.4,1.5,3,1.5,5L387.7,54.5L387.7,54.5z"/>
</svg>
