<?xml version="1.0" encoding="utf-8"?>
<!-- Generator: Adobe Illustrator 27.4.1, SVG Export Plug-In . SVG Version: 6.00 Build 0)  -->
<svg version="1.1" id="Layer_1" xmlns="http://www.w3.org/2000/svg" xmlns:xlink="http://www.w3.org/1999/xlink" x="0px" y="0px"
	 viewBox="0 0 590.2 675" style="enable-background:new 0 0 590.2 675;" xml:space="preserve">
<style type="text/css">
	.st0{fill:#FFFFFF;}
</style>
<path class="st0" d="M472.9,113.6c-23-22.4-38.3-52.4-44-85.3c-0.8-4.4-1.3-8.8-1.8-13.2V0.2H310.9v461.1
	c-0.2,53.7-43.9,97.2-97.7,97.2c-15.8,0-30.7-3.8-43.9-10.4c-33-16.6-53.7-50.3-53.7-87.2c0-53.9,43.7-97.7,97.7-97.7
	c10.4,0,20.3,1.6,29.6,4.5v-118c-9.7-1.3-19.5-2-29.3-2C95.6,248,0,343.5,0,461.3c0,73.9,37.5,139,94.6,177.3
	c35.1,23.6,76.5,36.2,118.9,36.1c117.9,0,213.5-95.6,213.5-213.4V225.7c46.9,33.6,103.2,51.6,161,51.5V161.8
	c-17.8,0-35.4-2.9-52-8.5C524.2,149.3,502.1,142.2,472.9,113.6L472.9,113.6z"/>
</svg>
